<svg width="700" height="430" viewBox="0 0 700 430" xmlns="http://www.w3.org/2000/svg" font-family="'JetBrains Mono','Fira Code',Consolas,monospace">
  <rect width="700" height="430" rx="14" fill="#F4F0E6" stroke="#DCD5C4" stroke-width="1.5"/>
  <text x="350" y="28" text-anchor="middle" font-size="16" font-weight="700" fill="#1F2A44">SELF-ASSESSED SKILLS</text>

  <!-- grid rings -->
  <polygon points="350.0,200.0 378.5,220.7 367.6,254.3 332.4,254.3 321.5,220.7" fill="none" stroke="#E3DDC9" stroke-width="1"/>
  <polygon points="350.0,170.0 407.1,211.5 385.3,278.5 314.7,278.5 292.9,211.5" fill="none" stroke="#E3DDC9" stroke-width="1"/>
  <polygon points="350.0,140.0 435.6,202.2 402.9,302.8 297.1,302.8 264.4,202.2" fill="none" stroke="#E3DDC9" stroke-width="1"/>
  <polygon points="350.0,110.0 464.1,192.9 420.5,327.1 279.5,327.1 235.9,192.9" fill="none" stroke="#E3DDC9" stroke-width="1"/>
  <polygon points="350.0,80.0 492.7,183.6 438.2,351.4 261.8,351.4 207.3,183.6" fill="none" stroke="#C9C2AE" stroke-width="1.4"/>

  <!-- axis lines -->
  <line x1="350" y1="230" x2="350.0" y2="80.0" stroke="#C9C2AE" stroke-width="1"/>
  <line x1="350" y1="230" x2="492.7" y2="183.6" stroke="#C9C2AE" stroke-width="1"/>
  <line x1="350" y1="230" x2="438.2" y2="351.4" stroke="#C9C2AE" stroke-width="1"/>
  <line x1="350" y1="230" x2="261.8" y2="351.4" stroke="#C9C2AE" stroke-width="1"/>
  <line x1="350" y1="230" x2="207.3" y2="183.6" stroke="#C9C2AE" stroke-width="1"/>

  <!-- data polygon -->
  <polygon points="350.0,87.5 471.3,190.6 420.5,327.1 275.1,333.1 218.8,187.4" fill="#B8862F" fill-opacity="0.28" stroke="#B8862F" stroke-width="2.5"/>
  <circle cx="350.0" cy="87.5" r="4" fill="#B8862F"/>
  <circle cx="471.3" cy="190.6" r="4" fill="#B8862F"/>
  <circle cx="420.5" cy="327.1" r="4" fill="#B8862F"/>
  <circle cx="275.1" cy="333.1" r="4" fill="#B8862F"/>
  <circle cx="218.8" cy="187.4" r="4" fill="#B8862F"/>

  <!-- labels -->
  <text x="350" y="42" text-anchor="middle" font-size="13" font-weight="700" fill="#2E8B63">실행력 95</text>
  <text x="350" y="58" text-anchor="middle" font-size="11" fill="#4A4638">Execution</text>

  <text x="519.3" y="160" text-anchor="start" font-size="13" font-weight="700" fill="#2E8B63">리더십 85</text>
  <text x="519.3" y="176" text-anchor="start" font-size="11" fill="#4A4638">Leadership</text>

  <text x="454.6" y="389" text-anchor="middle" font-size="13" font-weight="700" fill="#2E8B63">기술력 80</text>
  <text x="454.6" y="405" text-anchor="middle" font-size="11" fill="#4A4638">Technical</text>

  <text x="245.4" y="389" text-anchor="middle" font-size="13" font-weight="700" fill="#2E8B63">기획력 85</text>
  <text x="245.4" y="405" text-anchor="middle" font-size="11" fill="#4A4638">Planning</text>

  <text x="180.7" y="160" text-anchor="end" font-size="13" font-weight="700" fill="#2E8B63">커뮤니케이션 92</text>
  <text x="180.7" y="176" text-anchor="end" font-size="11" fill="#4A4638">Communication</text>

  <text x="350" y="418" text-anchor="middle" font-size="10" fill="#6A6354">본인 평가 기준 · 회사 인증 지표 아님</text>
</svg>
